<svg xmlns="http://www.w3.org/2000/svg" width="40" height="40" viewBox="0 0 40 40" fill="none">
  <circle cx="20" cy="20" r="20" fill="#3B99FC"/>
  <path d="M13.8125 17.1875C17.0625 13.9375 22.4375 13.9375 25.6875 17.1875L26.1875 17.6875C26.3125 17.8125 26.3125 18.0625 26.1875 18.1875L24.8125 19.5625C24.75 19.625 24.625 19.625 24.5625 19.5625L23.875 18.875C21.5625 16.5625 17.9375 16.5625 15.625 18.875L14.875 19.625C14.8125 19.6875 14.6875 19.6875 14.625 19.625L13.25 18.25C13.125 18.125 13.125 17.875 13.25 17.75L13.8125 17.1875ZM28.75 20.25L30 21.5C30.125 21.625 30.125 21.875 30 22L24.4375 27.5625C24.3125 27.6875 24.125 27.6875 24 27.5625L20.0625 23.625C20.0312 23.5938 19.9688 23.5938 19.9375 23.625L16 27.5625C15.875 27.6875 15.6875 27.6875 15.5625 27.5625L10 22C9.875 21.875 9.875 21.625 10 21.5L11.25 20.25C11.375 20.125 11.5625 20.125 11.6875 20.25L15.625 24.1875C15.6562 24.2187 15.7188 24.2187 15.75 24.1875L19.6875 20.25C19.8125 20.125 20 20.125 20.125 20.25L24.0625 24.1875C24.0938 24.2187 24.1562 24.2187 24.1875 24.1875L28.125 20.25C28.4375 20.125 28.625 20.125 28.75 20.25Z" fill="white"/>
</svg> 